<svg width="94" height="19" viewBox="0 0 94 19" fill="none" xmlns="http://www.w3.org/2000/svg">
<path d="M7.36117e-06 11.82V9.88L3.86001 8.52L6.56001 7.56V7.48L3.86001 6.52L7.36117e-06 5.16V3.22L8.90001 6.68V8.36L7.36117e-06 11.82ZM18.4978 14.4C17.3645 14.4 16.5578 14.0733 16.0778 13.42C15.6112 12.7533 15.3778 11.8933 15.3778 10.84V6.16H13.9778V4.44L15.4978 4.34L15.7778 1.66H17.6978V4.34H20.1978V6.16H17.6978V10.84C17.6978 11.9867 18.1578 12.56 19.0778 12.56C19.2512 12.56 19.4312 12.54 19.6178 12.5C19.8045 12.4467 19.9645 12.3933 20.0978 12.34L20.4978 14.04C20.2312 14.1333 19.9245 14.2133 19.5778 14.28C19.2445 14.36 18.8845 14.4 18.4978 14.4ZM26.1519 14.4C25.2452 14.4 24.4252 14.2 23.6919 13.8C22.9585 13.3867 22.3785 12.8 21.9519 12.04C21.5252 11.2667 21.3119 10.34 21.3119 9.26C21.3119 8.19334 21.5252 7.27334 21.9519 6.5C22.3919 5.72667 22.9585 5.13334 23.6519 4.72C24.3452 4.30667 25.0719 4.1 25.8319 4.1C26.7252 4.1 27.4719 4.3 28.0719 4.7C28.6719 5.08667 29.1252 5.63334 29.4319 6.34C29.7385 7.03334 29.8919 7.84 29.8919 8.76C29.8919 9.24 29.8585 9.61334 29.7919 9.88H23.5519C23.6585 10.7467 23.9719 11.42 24.4919 11.9C25.0119 12.38 25.6652 12.62 26.4519 12.62C26.8785 12.62 27.2719 12.56 27.6319 12.44C28.0052 12.3067 28.3719 12.1267 28.7319 11.9L29.5119 13.34C29.0452 13.6467 28.5252 13.9 27.9519 14.1C27.3785 14.3 26.7785 14.4 26.1519 14.4ZM23.5319 8.32H27.8919C27.8919 7.56 27.7252 6.96667 27.3919 6.54C27.0585 6.1 26.5585 5.88 25.8919 5.88C25.3185 5.88 24.8052 6.09334 24.3519 6.52C23.9119 6.93334 23.6385 7.53334 23.5319 8.32ZM30.6742 14.16L33.7942 9.04L30.8742 4.34H33.3542L34.4542 6.2C34.6009 6.46667 34.7476 6.74667 34.8942 7.04C35.0542 7.32 35.2076 7.59334 35.3542 7.86H35.4342C35.5542 7.59334 35.6809 7.32 35.8142 7.04C35.9476 6.74667 36.0742 6.46667 36.1942 6.2L37.1342 4.34H39.5142L36.6142 9.3L39.7342 14.16H37.2542L36.0542 12.22C35.8942 11.9267 35.7276 11.6333 35.5542 11.34C35.3942 11.0467 35.2276 10.76 35.0542 10.48H34.9742C34.8409 10.76 34.7009 11.0467 34.5542 11.34C34.4076 11.62 34.2609 11.9133 34.1142 12.22L33.0742 14.16H30.6742ZM43.6678 14.4C42.8145 14.4 42.1145 14.1333 41.5678 13.6C41.0345 13.0667 40.7678 12.3733 40.7678 11.52C40.7678 10.4667 41.2278 9.65334 42.1478 9.08C43.0678 8.49334 44.5345 8.09334 46.5478 7.88C46.5345 7.36 46.3945 6.91334 46.1278 6.54C45.8745 6.15334 45.4145 5.96 44.7478 5.96C44.2678 5.96 43.7945 6.05334 43.3278 6.24C42.8745 6.42667 42.4278 6.65334 41.9878 6.92L41.1478 5.38C41.6945 5.03334 42.3078 4.73334 42.9878 4.48C43.6812 4.22667 44.4145 4.1 45.1878 4.1C46.4145 4.1 47.3278 4.46667 47.9278 5.2C48.5412 5.92 48.8478 6.96667 48.8478 8.34V14.16H46.9478L46.7878 13.08H46.7078C46.2678 13.4533 45.7945 13.7667 45.2878 14.02C44.7945 14.2733 44.2545 14.4 43.6678 14.4ZM44.4078 12.6C44.8078 12.6 45.1678 12.5067 45.4878 12.32C45.8212 12.12 46.1745 11.8533 46.5478 11.52V9.32C45.2145 9.49334 44.2878 9.75334 43.7678 10.1C43.2478 10.4333 42.9878 10.8467 42.9878 11.34C42.9878 11.78 43.1212 12.1 43.3878 12.3C43.6545 12.5 43.9945 12.6 44.4078 12.6ZM53.8403 14.4C53.027 14.4 52.447 14.1533 52.1003 13.66C51.767 13.1667 51.6003 12.4933 51.6003 11.64V0.0400031H53.9003V11.76C53.9003 12.04 53.9537 12.24 54.0603 12.36C54.167 12.4667 54.2803 12.52 54.4003 12.52C54.4537 12.52 54.5003 12.52 54.5403 12.52C54.5937 12.5067 54.667 12.4933 54.7603 12.48L55.0603 14.2C54.927 14.2533 54.7537 14.3 54.5403 14.34C54.3403 14.38 54.107 14.4 53.8403 14.4ZM61.79 14.4C60.8567 14.4 59.9633 13.9733 59.11 13.12H59.05L58.85 14.16H57.03V0.0400031H59.33V3.68L59.27 5.32C59.6833 4.96 60.1367 4.66667 60.63 4.44C61.1233 4.21334 61.6167 4.1 62.11 4.1C63.3367 4.1 64.29 4.55334 64.97 5.46C65.65 6.36667 65.99 7.57334 65.99 9.08C65.99 10.2 65.79 11.16 65.39 11.96C64.99 12.7467 64.47 13.3533 63.83 13.78C63.2033 14.1933 62.5233 14.4 61.79 14.4ZM61.31 12.5C61.9633 12.5 62.51 12.2133 62.95 11.64C63.39 11.0667 63.61 10.2267 63.61 9.12C63.61 8.13334 63.4433 7.36667 63.11 6.82C62.7767 6.27334 62.2367 6 61.49 6C60.7967 6 60.0767 6.36667 59.33 7.1V11.68C59.6767 11.9733 60.0167 12.1867 60.35 12.32C60.6967 12.44 61.0167 12.5 61.31 12.5ZM71.2195 14.4C70.1662 14.4 69.3995 14.06 68.9195 13.38C68.4395 12.7 68.1995 11.74 68.1995 10.5V4.34H70.4995V10.2C70.4995 11.0133 70.6195 11.5867 70.8595 11.92C71.0995 12.2533 71.4862 12.42 72.0195 12.42C72.4462 12.42 72.8195 12.3133 73.1395 12.1C73.4729 11.8867 73.8262 11.54 74.1995 11.06V4.34H76.4995V14.16H74.6195L74.4395 12.72H74.3795C73.9529 13.2267 73.4862 13.6333 72.9795 13.94C72.4729 14.2467 71.8862 14.4 71.2195 14.4ZM78.6328 18.28C78.2728 18.28 77.9662 18.2533 77.7128 18.2C77.4462 18.1467 77.2195 18.0867 77.0328 18.02L77.4728 16.3C77.6062 16.34 77.7462 16.3733 77.8928 16.4C78.0262 16.44 78.1662 16.46 78.3128 16.46C78.7528 16.46 79.0462 16.3067 79.1928 16C79.3528 15.7067 79.4328 15.2733 79.4328 14.7V4.34H81.7528V14.66C81.7528 15.3533 81.6528 15.9733 81.4528 16.52C81.2528 17.0667 80.9262 17.4933 80.4728 17.8C80.0195 18.12 79.4062 18.28 78.6328 18.28ZM80.5928 2.62C80.1795 2.62 79.8462 2.5 79.5928 2.26C79.3395 2.02 79.2128 1.7 79.2128 1.3C79.2128 0.913336 79.3395 0.600003 79.5928 0.360003C79.8462 0.120003 80.1795 3.57628e-06 80.5928 3.57628e-06C81.0062 3.57628e-06 81.3395 0.120003 81.5928 0.360003C81.8462 0.600003 81.9728 0.913336 81.9728 1.3C81.9728 1.7 81.8462 2.02 81.5928 2.26C81.3395 2.5 81.0062 2.62 80.5928 2.62ZM87.0467 14.4C86.1934 14.4 85.4934 14.1333 84.9467 13.6C84.4134 13.0667 84.1467 12.3733 84.1467 11.52C84.1467 10.4667 84.6067 9.65334 85.5267 9.08C86.4467 8.49334 87.9134 8.09334 89.9267 7.88C89.9134 7.36 89.7734 6.91334 89.5067 6.54C89.2534 6.15334 88.7934 5.96 88.1267 5.96C87.6467 5.96 87.1734 6.05334 86.7067 6.24C86.2534 6.42667 85.8067 6.65334 85.3667 6.92L84.5267 5.38C85.0734 5.03334 85.6867 4.73334 86.3667 4.48C87.0601 4.22667 87.7934 4.1 88.5667 4.1C89.7934 4.1 90.7067 4.46667 91.3067 5.2C91.9201 5.92 92.2267 6.96667 92.2267 8.34V14.16H90.3267L90.1667 13.08H90.0867C89.6467 13.4533 89.1734 13.7667 88.6667 14.02C88.1734 14.2733 87.6334 14.4 87.0467 14.4ZM87.7867 12.6C88.1867 12.6 88.5467 12.5067 88.8667 12.32C89.2001 12.12 89.5534 11.8533 89.9267 11.52V9.32C88.5934 9.49334 87.6667 9.75334 87.1467 10.1C86.6267 10.4333 86.3667 10.8467 86.3667 11.34C86.3667 11.78 86.5001 12.1 86.7667 12.3C87.0334 12.5 87.3734 12.6 87.7867 12.6Z" fill="white"/>
<path d="M84.1596 18.96V17.3H93.6796V18.96H84.1596Z" fill="#B62FCC"/>
</svg>
